<?xml version="1.0" encoding="utf-8"?>
<!-- Generator: Adobe Illustrator 27.0.0, SVG Export Plug-In . SVG Version: 6.00 Build 0)  -->
<svg version="1.1" id="Layer_1" xmlns="http://www.w3.org/2000/svg" xmlns:xlink="http://www.w3.org/1999/xlink" x="0px" y="0px"
	 viewBox="0 0 856 884" style="enable-background:new 0 0 856 884;" xml:space="preserve">
<style type="text/css">
	.st0{fill:#E7E7E7;}
	.st1{fill:#B0B6B7;}
</style>
<g>
	<path class="st0" d="M856,453c0,112.2-44.2,214.1-116.1,289.1C663.8,821.6,556.7,871,438,871s-225.8-49.4-301.9-128.9
		C64.2,667.1,20,565.2,20,453C20,222.1,207.1,35,438,35S856,222.1,856,453z"/>
	<circle class="st1" cx="438" cy="304.7" r="170.8"/>
	<path class="st1" d="M725.7,707.6c-3.3,3.8-6.8,7.5-10.3,11.2c-69.9,73-168.4,118.4-277.4,118.4s-207.5-45.4-277.4-118.4
		c-3.5-3.6-6.9-7.4-10.3-11.2c0-118.3,68.6-181,287.7-181C665.2,526.6,725.7,599.8,725.7,707.6z"/>
</g>
</svg>
